<?xml version="1.0" encoding="UTF-8"?>
<svg version="1.1" xmlns="http://www.w3.org/2000/svg" width="1024" height="1024">
<path d="M0 0 C337.92 0 675.84 0 1024 0 C1024 337.92 1024 675.84 1024 1024 C686.08 1024 348.16 1024 0 1024 C0 686.08 0 348.16 0 0 Z " fill="#FDFBFB" transform="translate(0,0)"/>
<path d="M0 0 C2 3.75 2 3.75 2 6 C2.55429687 5.71125 3.10859375 5.4225 3.6796875 5.125 C4.40414063 4.75375 5.12859375 4.3825 5.875 4 C6.95394531 3.443125 6.95394531 3.443125 8.0546875 2.875 C10 2 10 2 12 2 C12 2.66 12 3.32 12 4 C10.02 4.66 8.04 5.32 6 6 C9.08305326 9.30936295 12.72092878 11.09000443 16.71875 13.09765625 C17.48394455 13.48783936 18.2491391 13.87802246 19.03752136 14.2800293 C20.6736609 15.11354235 22.31113145 15.94444692 23.94979858 16.77297974 C27.37922799 18.5070854 30.80212668 20.25389641 34.2253418 22.00022888 C35.85009028 22.8284769 37.47545604 23.65551566 39.1015625 24.48109436 C47.78495509 28.8918024 56.39875707 33.43167982 65 38 C70.54069967 40.93932427 76.08279311 43.87601895 81.625 46.8125 C82.35631134 47.20009491 83.08762268 47.58768982 83.84109497 47.98703003 C97.19134723 55.06135062 110.57931816 62.06007022 124 69 C123.99214478 67.37203491 123.99214478 67.37203491 123.98413086 65.71118164 C123.96608164 61.69882018 123.95456829 57.68646233 123.94506836 53.67407227 C123.94002796 51.93480832 123.9331957 50.19554864 123.92456055 48.45629883 C123.91248208 45.96174063 123.90676892 43.46723827 123.90234375 40.97265625 C123.89718246 40.19036148 123.89202118 39.40806671 123.88670349 38.60206604 C123.88650774 36.73432886 123.93800306 34.86670796 124 33 C126.05095859 30.94904141 130.30293477 31.71847252 133.12890625 31.6484375 C133.95196762 31.62528473 134.77502899 31.60213196 135.62303162 31.57827759 C137.37240208 31.53053656 139.12184281 31.48531521 140.87133789 31.44238281 C143.52714395 31.37588526 146.18243461 31.2978771 148.83789062 31.21875 C150.53904402 31.17377464 152.24021565 31.12948286 153.94140625 31.0859375 C154.72818253 31.06203949 155.5149588 31.03814148 156.32557678 31.01351929 C161.32646903 30.90207564 166.0572043 31.19719693 171 32 C172.7795968 33.7795968 172.17124664 36.39529781 172.20532227 38.80493164 C172.22526749 40.04614273 172.24521271 41.28735382 172.26576233 42.56617737 C172.28274793 43.9308357 172.29962669 45.29549537 172.31640625 46.66015625 C172.33696936 48.04878875 172.35796566 49.4374149 172.37937927 50.82603455 C172.43466647 54.48714059 172.48404626 58.14830373 172.53222656 61.80950928 C172.58239321 65.54297997 172.63810446 69.27636738 172.69335938 73.00976562 C172.80102218 80.3397733 172.90244894 87.66985005 173 95 C176.49607288 96.91778652 179.99397146 98.83221973 183.4921875 100.74609375 C184.47340576 101.28439819 185.45462402 101.82270264 186.46557617 102.37731934 C192.62018872 105.74196058 198.81700188 108.95720934 205.11897278 112.03694153 C208.8763121 113.87686534 212.54020034 115.84141473 216.18359375 117.8984375 C217.0761084 118.40109131 217.96862305 118.90374512 218.88818359 119.42163086 C220.627218 120.40735887 222.36096829 121.40248854 224.08837891 122.40844727 C224.88550293 122.86018311 225.68262695 123.31191895 226.50390625 123.77734375 C227.20330322 124.18202881 227.9027002 124.58671387 228.62329102 125.00366211 C231.66167351 126.3948842 231.66167351 126.3948842 238 127 C238 115.12 238 103.24 238 91 C237.34 91 236.68 91 236 91 C236 89.68 236 88.36 236 87 C233.03 87 230.06 87 227 87 C227 86.34 227 85.68 227 85 C229.97 85 232.94 85 236 85 C236 83.02 236 81.04 236 79 C236.99 79 237.98 79 239 79 C239 61.84 239 44.68 239 27 C239.66 27 240.32 27 241 27 C241 44.16 241 61.32 241 79 C241.99 79 242.98 79 244 79 C244 80.98 244 82.96 244 85 C246.97 85 249.94 85 253 85 C253 85.66 253 86.32 253 87 C249.7 87 246.4 87 243 87 C243 87.99 243 88.98 243 90 C242.34 90 241.68 90 241 90 C241 103.86 241 117.72 241 132 C242.65 132.66 244.3 133.32 246 134 C247.84718156 134.95278474 249.68035796 135.93311893 251.5 136.9375 C252.4178125 137.44152344 253.335625 137.94554687 254.28125 138.46484375 C256.88213729 139.93344821 259.44667972 141.45043063 262 143 C261.67 143.99 261.34 144.98 261 146 C255.73006278 146.45402536 252.15991509 144.95207309 247.625 142.5 C246.98433594 142.16613281 246.34367187 141.83226562 245.68359375 141.48828125 C244.11666329 140.66973549 242.55749759 139.83635487 241 139 C241 140.98 241 142.96 241 145 C243.97 145 246.94 145 250 145 C250 145.66 250 146.32 250 147 C247.03 147 244.06 147 241 147 C241.00138269 148.41771651 241.00138269 148.41771651 241.00279331 149.86407375 C241.02500535 172.87494837 241.04143171 195.8858216 241.05181217 218.89670467 C241.05696567 230.02464619 241.06399037 241.15258061 241.07543945 252.28051758 C241.08541517 261.98104738 241.09186031 271.68157205 241.09408849 281.38210684 C241.09539069 286.51713895 241.09844549 291.65215637 241.10573006 296.78718376 C241.11253582 301.62404923 241.11460769 306.46089402 241.11310768 311.29776382 C241.11338196 313.0694102 241.11535998 314.84105729 241.11920547 316.61269951 C241.15323481 333.10421688 241.15323481 333.10421688 240 341 C240.99 341 241.98 341 243 341 C243 342.65 243 344.3 243 346 C249.27 346 255.54 346 262 346 C262 346.99 262 347.98 262 349 C255.73 349 249.46 349 243 349 C243 349.66 243 350.32 243 351 C242.34 351.33 241.68 351.66 241 352 C240.52998967 355.27555608 240.52998967 355.27555608 240.375 359.0625 C240.30023437 360.35285156 240.22546875 361.64320313 240.1484375 362.97265625 C240.09945313 363.97167969 240.05046875 364.97070312 240 366 C239.34 366 238.68 366 238 366 C238 361.05 238 356.1 238 351 C237.01 351 236.02 351 235 351 C235 350.34 235 349.68 235 349 C218.5 349 202 349 185 349 C185 352.3 185 355.6 185 359 C184.34 359 183.68 359 183 359 C183 355.7 183 352.4 183 349 C66.51 349 -49.98 349 -170 349 C-168.68 351.97 -167.36 354.94 -166 358 C-166 359.32 -166 360.64 -166 362 C-166.66 362 -167.32 362 -168 362 C-168.33773437 361.21753906 -168.67546875 360.43507813 -169.0234375 359.62890625 C-169.69246094 358.11103516 -169.69246094 358.11103516 -170.375 356.5625 C-170.81585938 355.55316406 -171.25671875 354.54382813 -171.7109375 353.50390625 C-172.75076286 350.87856453 -172.75076286 350.87856453 -175 350 C-175 352.64 -175 355.28 -175 358 C-175.33 358 -175.66 358 -176 358 C-176 355.03 -176 352.06 -176 349 C-193.16 349 -210.32 349 -228 349 C-225.525 353.95 -225.525 353.95 -223 359 C-223 359.99 -223 360.98 -223 362 C-223.99 362 -224.98 362 -226 362 C-227.32 358.37 -228.64 354.74 -230 351 C-230.33 354.63 -230.66 358.26 -231 362 C-231.66 362 -232.32 362 -233 362 C-233 357.71 -233 353.42 -233 349 C-240.59 349 -248.18 349 -256 349 C-256.495 347.515 -256.495 347.515 -257 346 C-249.41 346 -241.82 346 -234 346 C-234 280 -234 214 -234 146 C-236.97 146 -239.94 146 -243 146 C-243 145.34 -243 144.68 -243 144 C-240.03 144 -237.06 144 -234 144 C-234 142.02 -234 140.04 -234 138 C-234.91523438 138.433125 -235.83046875 138.86625 -236.7734375 139.3125 C-237.96195312 139.869375 -239.15046875 140.42625 -240.375 141 C-241.55835938 141.556875 -242.74171875 142.11375 -243.9609375 142.6875 C-247 144 -247 144 -249 144 C-249 144.66 -249 145.32 -249 146 C-250.65 146 -252.3 146 -254 146 C-254.66 144.68 -255.32 143.36 -256 142 C-255.36908447 141.85119385 -254.73816895 141.7023877 -254.08813477 141.54907227 C-246.50813337 139.45078021 -239.52432924 136.69428892 -235 130 C-231.18558363 117.24692057 -233.11466871 102.10182894 -234 89 C-237.63 88.34 -241.26 87.68 -245 87 C-245 86.34 -245 85.68 -245 85 C-242.36 85 -239.72 85 -237 85 C-237 83.02 -237 81.04 -237 79 C-235.68 79 -234.36 79 -233 79 C-233.00785522 78.01495483 -233.00785522 78.01495483 -233.01586914 77.01000977 C-233.12785697 60.64419413 -232.79719107 44.34665737 -232 28 C-231.67 28 -231.34 28 -231 28 C-231 44.5 -231 61 -231 78 C-230.01 78 -229.02 78 -228 78 C-228 80.31 -228 82.62 -228 85 C-225.36 85 -222.72 85 -220 85 C-220 85.66 -220 86.32 -220 87 C-225.445 87.495 -225.445 87.495 -231 88 C-231 100.87 -231 113.74 -231 127 C-226.60525801 125.11653915 -222.56273196 123.32051611 -218.40234375 121.06640625 C-217.36529297 120.50630859 -216.32824219 119.94621094 -215.25976562 119.36914062 C-214.16341797 118.77294922 -213.06707031 118.17675781 -211.9375 117.5625 C-210.78572266 116.93923828 -209.63394531 116.31597656 -208.44726562 115.67382812 C-200.3925855 111.31374131 -192.35236379 106.92695221 -184.31640625 102.5324707 C-177.37413822 98.73903491 -170.40812144 94.99102431 -163.4375 91.25 C-153.94050103 86.15172345 -144.49131133 80.97275414 -135.0625 75.75 C-126.35861317 70.92907082 -117.62949469 66.17017661 -108.80444336 61.57397461 C-103.03450033 58.56386953 -97.32674582 55.44956589 -91.625 52.3125 C-82.37134599 47.22881982 -73.01409611 42.36170938 -63.62451172 37.53613281 C-54.68442313 32.93890636 -45.81920407 28.22400219 -37.01318359 23.37402344 C-26.76647992 17.7430385 -16.38539819 12.36967388 -6 7 C-7.98 5.02 -7.98 5.02 -10 3 C-5.545 3.99 -5.545 3.99 -1 5 C-0.67 3.35 -0.34 1.7 0 0 Z " fill="#FBF9F9" transform="translate(511,212)"/>
<path d="M0 0 C2 3.75 2 3.75 2 6 C2.55429687 5.71125 3.10859375 5.4225 3.6796875 5.125 C4.40414063 4.75375 5.12859375 4.3825 5.875 4 C6.95394531 3.443125 6.95394531 3.443125 8.0546875 2.875 C10 2 10 2 12 2 C12 2.66 12 3.32 12 4 C10.02 4.66 8.04 5.32 6 6 C9.08305326 9.30936295 12.72092878 11.09000443 16.71875 13.09765625 C17.48394455 13.48783936 18.2491391 13.87802246 19.03752136 14.2800293 C20.6736609 15.11354235 22.31113145 15.94444692 23.94979858 16.77297974 C27.37922799 18.5070854 30.80212668 20.25389641 34.2253418 22.00022888 C35.85009028 22.8284769 37.47545604 23.65551566 39.1015625 24.48109436 C47.78495509 28.8918024 56.39875707 33.43167982 65 38 C70.54069967 40.93932427 76.08279311 43.87601895 81.625 46.8125 C82.35631134 47.20009491 83.08762268 47.58768982 83.84109497 47.98703003 C97.19134723 55.06135062 110.57931816 62.06007022 124 69 C123.99214478 67.37203491 123.99214478 67.37203491 123.98413086 65.71118164 C123.96608164 61.69882018 123.95456829 57.68646233 123.94506836 53.67407227 C123.94002796 51.93480832 123.9331957 50.19554864 123.92456055 48.45629883 C123.91248208 45.96174063 123.90676892 43.46723827 123.90234375 40.97265625 C123.89718246 40.19036148 123.89202118 39.40806671 123.88670349 38.60206604 C123.88650774 36.73432886 123.93800306 34.86670796 124 33 C126.05095859 30.94904141 130.30293477 31.71847252 133.12890625 31.6484375 C133.95196762 31.62528473 134.77502899 31.60213196 135.62303162 31.57827759 C137.37240208 31.53053656 139.12184281 31.48531521 140.87133789 31.44238281 C143.52714395 31.37588526 146.18243461 31.2978771 148.83789062 31.21875 C150.53904402 31.17377464 152.24021565 31.12948286 153.94140625 31.0859375 C154.72818253 31.06203949 155.5149588 31.03814148 156.32557678 31.01351929 C161.32646903 30.90207564 166.0572043 31.19719693 171 32 C172.7795968 33.7795968 172.17124664 36.39529781 172.20532227 38.80493164 C172.22526749 40.04614273 172.24521271 41.28735382 172.26576233 42.56617737 C172.28274793 43.9308357 172.29962669 45.29549537 172.31640625 46.66015625 C172.33696936 48.04878875 172.35796566 49.4374149 172.37937927 50.82603455 C172.43466647 54.48714059 172.48404626 58.14830373 172.53222656 61.80950928 C172.58239321 65.54297997 172.63810446 69.27636738 172.69335938 73.00976562 C172.80102218 80.3397733 172.90244894 87.66985005 173 95 C176.49607288 96.91778652 179.99397146 98.83221973 183.4921875 100.74609375 C184.47340576 101.28439819 185.45462402 101.82270264 186.46557617 102.37731934 C192.62018872 105.74196058 198.81700188 108.95720934 205.11897278 112.03694153 C208.8763121 113.87686534 212.54020034 115.84141473 216.18359375 117.8984375 C217.0761084 118.40109131 217.96862305 118.90374512 218.88818359 119.42163086 C220.627218 120.40735887 222.36096829 121.40248854 224.08837891 122.40844727 C224.88550293 122.86018311 225.68262695 123.31191895 226.50390625 123.77734375 C227.20330322 124.18202881 227.9027002 124.58671387 228.62329102 125.00366211 C231.66167351 126.3948842 231.66167351 126.3948842 238 127 C238 115.12 238 103.24 238 91 C237.34 91 236.68 91 236 91 C236 89.68 236 88.36 236 87 C233.03 87 230.06 87 227 87 C227 86.34 227 85.68 227 85 C229.97 85 232.94 85 236 85 C236 83.02 236 81.04 236 79 C236.99 79 237.98 79 239 79 C239 61.84 239 44.68 239 27 C239.66 27 240.32 27 241 27 C241 44.16 241 61.32 241 79 C241.99 79 242.98 79 244 79 C244 80.98 244 82.96 244 85 C246.97 85 249.94 85 253 85 C253 85.66 253 86.32 253 87 C249.7 87 246.4 87 243 87 C243 87.99 243 88.98 243 90 C242.34 90 241.68 90 241 90 C241 103.86 241 117.72 241 132 C242.65 132.66 244.3 133.32 246 134 C247.84718156 134.95278474 249.68035796 135.93311893 251.5 136.9375 C252.4178125 137.44152344 253.335625 137.94554687 254.28125 138.46484375 C256.88213729 139.93344821 259.44667972 141.45043063 262 143 C261.67 143.99 261.34 144.98 261 146 C255.73006278 146.45402536 252.15991509 144.95207309 247.625 142.5 C246.98433594 142.16613281 246.34367187 141.83226562 245.68359375 141.48828125 C244.11666329 140.66973549 242.55749759 139.83635487 241 139 C241 140.98 241 142.96 241 145 C243.97 145 246.94 145 250 145 C250 145.66 250 146.32 250 147 C247.03 147 244.06 147 241 147 C241.00138269 148.41771651 241.00138269 148.41771651 241.00279331 149.86407375 C241.02500535 172.87494837 241.04143171 195.8858216 241.05181217 218.89670467 C241.05696567 230.02464619 241.06399037 241.15258061 241.07543945 252.28051758 C241.08541517 261.98104738 241.09186031 271.68157205 241.09408849 281.38210684 C241.09539069 286.51713895 241.09844549 291.65215637 241.10573006 296.78718376 C241.11253582 301.62404923 241.11460769 306.46089402 241.11310768 311.29776382 C241.11338196 313.0694102 241.11535998 314.84105729 241.11920547 316.61269951 C241.15323481 333.10421688 241.15323481 333.10421688 240 341 C240.99 341 241.98 341 243 341 C243 342.65 243 344.3 243 346 C249.27 346 255.54 346 262 346 C262 346.99 262 347.98 262 349 C255.73 349 249.46 349 243 349 C243 349.66 243 350.32 243 351 C242.34 351.33 241.68 351.66 241 352 C240.52998967 355.27555608 240.52998967 355.27555608 240.375 359.0625 C240.30023437 360.35285156 240.22546875 361.64320313 240.1484375 362.97265625 C240.09945313 363.97167969 240.05046875 364.97070312 240 366 C239.34 366 238.68 366 238 366 C238 361.05 238 356.1 238 351 C237.01 351 236.02 351 235 351 C235 350.34 235 349.68 235 349 C218.5 349 202 349 185 349 C185 352.3 185 355.6 185 359 C184.34 359 183.68 359 183 359 C183 355.7 183 352.4 183 349 C66.51 349 -49.98 349 -170 349 C-168.68 351.97 -167.36 354.94 -166 358 C-166 359.32 -166 360.64 -166 362 C-166.66 362 -167.32 362 -168 362 C-168.33773437 361.21753906 -168.67546875 360.43507813 -169.0234375 359.62890625 C-169.69246094 358.11103516 -169.69246094 358.11103516 -170.375 356.5625 C-170.81585938 355.55316406 -171.25671875 354.54382813 -171.7109375 353.50390625 C-172.75076286 350.87856453 -172.75076286 350.87856453 -175 350 C-175 352.64 -175 355.28 -175 358 C-175.33 358 -175.66 358 -176 358 C-176 355.03 -176 352.06 -176 349 C-193.16 349 -210.32 349 -228 349 C-225.525 353.95 -225.525 353.95 -223 359 C-223 359.99 -223 360.98 -223 362 C-223.99 362 -224.98 362 -226 362 C-227.32 358.37 -228.64 354.74 -230 351 C-230.33 354.63 -230.66 358.26 -231 362 C-231.66 362 -232.32 362 -233 362 C-233 357.71 -233 353.42 -233 349 C-240.59 349 -248.18 349 -256 349 C-256.495 347.515 -256.495 347.515 -257 346 C-249.41 346 -241.82 346 -234 346 C-234 280 -234 214 -234 146 C-236.97 146 -239.94 146 -243 146 C-243 145.34 -243 144.68 -243 144 C-240.03 144 -237.06 144 -234 144 C-234 142.02 -234 140.04 -234 138 C-234.91523438 138.433125 -235.83046875 138.86625 -236.7734375 139.3125 C-237.96195312 139.869375 -239.15046875 140.42625 -240.375 141 C-241.55835938 141.556875 -242.74171875 142.11375 -243.9609375 142.6875 C-247 144 -247 144 -249 144 C-249 144.66 -249 145.32 -249 146 C-250.65 146 -252.3 146 -254 146 C-254.66 144.68 -255.32 143.36 -256 142 C-255.36908447 141.85119385 -254.73816895 141.7023877 -254.08813477 141.54907227 C-246.50813337 139.45078021 -239.52432924 136.69428892 -235 130 C-231.18558363 117.24692057 -233.11466871 102.10182894 -234 89 C-237.63 88.34 -241.26 87.68 -245 87 C-245 86.34 -245 85.68 -245 85 C-242.36 85 -239.72 85 -237 85 C-237 83.02 -237 81.04 -237 79 C-235.68 79 -234.36 79 -233 79 C-233.00785522 78.01495483 -233.00785522 78.01495483 -233.01586914 77.01000977 C-233.12785697 60.64419413 -232.79719107 44.34665737 -232 28 C-231.67 28 -231.34 28 -231 28 C-231 44.5 -231 61 -231 78 C-230.01 78 -229.02 78 -228 78 C-228 80.31 -228 82.62 -228 85 C-225.36 85 -222.72 85 -220 85 C-220 85.66 -220 86.32 -220 87 C-225.445 87.495 -225.445 87.495 -231 88 C-231 100.87 -231 113.74 -231 127 C-226.60525801 125.11653915 -222.56273196 123.32051611 -218.40234375 121.06640625 C-217.36529297 120.50630859 -216.32824219 119.94621094 -215.25976562 119.36914062 C-214.16341797 118.77294922 -213.06707031 118.17675781 -211.9375 117.5625 C-210.78572266 116.93923828 -209.63394531 116.31597656 -208.44726562 115.67382812 C-200.3925855 111.31374131 -192.35236379 106.92695221 -184.31640625 102.5324707 C-177.37413822 98.73903491 -170.40812144 94.99102431 -163.4375 91.25 C-153.94050103 86.15172345 -144.49131133 80.97275414 -135.0625 75.75 C-126.35861317 70.92907082 -117.62949469 66.17017661 -108.80444336 61.57397461 C-103.03450033 58.56386953 -97.32674582 55.44956589 -91.625 52.3125 C-82.37134599 47.22881982 -73.01409611 42.36170938 -63.62451172 37.53613281 C-54.68442313 32.93890636 -45.81920407 28.22400219 -37.01318359 23.37402344 C-26.76647992 17.7430385 -16.38539819 12.36967388 -6 7 C-7.98 5.02 -7.98 5.02 -10 3 C-5.545 3.99 -5.545 3.99 -1 5 C-0.67 3.35 -0.34 1.7 0 0 Z M-8.515625 15.6484375 C-9.58474121 16.23262451 -10.65385742 16.81681152 -11.75537109 17.41870117 C-12.92025922 18.07077967 -14.08513515 18.72287994 -15.25 19.375 C-16.47787078 20.05005504 -17.70657007 20.72360497 -18.93603516 21.39575195 C-20.89222704 22.46522986 -22.84792563 23.5355055 -24.80130005 24.61012268 C-31.88481632 28.50393601 -39.03447749 32.26990958 -46.18692017 36.03512573 C-57.22359805 41.84770322 -68.21916508 47.72516158 -79.14990234 53.73510742 C-85.88244877 57.42337754 -92.68054521 60.97540222 -99.5 64.5 C-110.13820368 69.99939655 -120.66401955 75.68103246 -131.15966797 81.44677734 C-135.25329895 83.68536083 -139.36152687 85.89662567 -143.46850586 88.1105957 C-154.06924961 93.8107307 -154.06924961 93.8107307 -164.5 99.8125 C-168.65920881 102.28278154 -172.91035544 104.49290196 -177.25 106.625 C-184.52044317 110.20083587 -191.67708782 113.97469038 -198.8125 117.8125 C-199.86920898 118.37598145 -200.92591797 118.93946289 -202.01464844 119.52001953 C-203.00625977 120.0561084 -203.99787109 120.59219727 -205.01953125 121.14453125 C-205.90745361 121.62253174 -206.79537598 122.10053223 -207.71020508 122.59301758 C-209.99635304 123.85571365 -209.99635304 123.85571365 -211.4362793 125.5534668 C-213 127 -213 127 -219 129 C-222.96 130.98 -226.92 132.96 -231 135 C-231 204.63 -231 274.26 -231 346 C-212.85 346 -194.7 346 -176 346 C-176 341.71 -176 337.42 -176 333 C-175.34 333 -174.68 333 -174 333 C-174 337.29 -174 341.58 -174 346 C-39.36 346 95.28 346 234 346 C234 344.35 234 342.7 234 341 C235.32 341 236.64 341 238 341 C238 273.68 238 206.36 238 137 C220.09803922 125.94117647 220.09803922 125.94117647 184 129 C184 195.33 184 261.66 184 330 C169.81 329.67 155.62 329.34 141 329 C140.505 264.155 140.505 264.155 140 198 C132.99692561 204.00263519 126.81380161 210.00142497 120.81640625 216.96484375 C118.94771168 219.05858541 116.99955265 221.03126897 115 223 C112.52036671 225.44663437 110.14559624 227.92107774 107.875 230.5625 C104.25679086 234.77109292 100.47692373 238.82120903 96.6875 242.875 C95.75236572 243.87575562 95.75236572 243.87575562 94.79833984 244.89672852 C88.18767528 251.95635459 88.18767528 251.95635459 85.3125 252.625 C81.55041747 251.91517311 81.26700251 251.48870462 78.98046875 248.6484375 C74.31837862 243.10263499 69.15372294 238.08118394 64 233 C58.33327665 227.41303616 52.73212698 221.83037314 47.55566406 215.77832031 C45.13035599 213.00588716 42.51272993 210.44349817 39.875 207.875 C36.82841768 204.90714074 33.91859548 201.95635461 31.2578125 198.6328125 C30.51273438 197.76398438 29.76765625 196.89515625 29 196 C28.34 196 27.68 196 27 196 C27 240.55 27 285.1 27 331 C20.73 331 14.46 331 8 331 C8 263.68 8 196.36 8 127 C6.68 127 5.36 127 4 127 C4 126.34 4 125.68 4 125 C25.62860663 122.57431205 25.62860663 122.57431205 32.46484375 127.8359375 C36.06434947 131.22508554 39.0445685 135.05190449 42 139 C43.25791034 140.42815384 44.52597313 141.84756981 45.8125 143.25 C46.87560944 144.49948172 47.93810011 145.74949015 49 147 C54.97055749 153.77404866 61.13100123 160.36258285 67.31665039 166.93945312 C72.93052907 172.91205745 78.47996978 178.94059053 84 185 C88.04303174 184.48096214 89.63738268 182.57452824 92.25 179.5625 C93.03375 178.66273438 93.8175 177.76296875 94.625 176.8359375 C97.51409036 173.38613553 100.32495893 169.88333301 103.078125 166.32421875 C105.23903343 163.71092501 107.58620322 161.38068066 110 159 C115.9075831 152.72074777 121.48195088 146.23697302 126.8828125 139.51953125 C129.34486379 136.58959936 131.98127964 133.94026446 134.78515625 131.33984375 C136.22390157 130.05449333 136.22390157 130.05449333 136 128 C132.37 128 128.74 128 125 128 C125 127.34 125 126.68 125 126 C131.93 126.495 131.93 126.495 139 127 C139 126.34 139 125.68 139 125 C140.80911865 125.04543945 140.80911865 125.04543945 142.65478516 125.09179688 C166.44048678 125.68314793 190.20579509 126.1851135 214 126 C207.1015289 118.76607185 196.30065446 114.58359544 187.38598633 110.2121582 C181.83227791 107.4680429 176.41274636 104.51131664 171 101.5 C165.10130313 98.22034239 159.1865478 95.0309123 153.125 92.0625 C145.76193835 88.45641038 138.57991346 84.54598211 131.41455078 80.56274414 C124.757396 76.88438192 117.99045774 73.46706423 111.18066406 70.08398438 C104.37996648 66.70243079 97.62725044 63.22701475 90.875 59.75 C90.15878479 59.38149933 89.44256958 59.01299866 88.70465088 58.6333313 C79.17564709 53.7263416 69.7147839 48.71956002 60.33447266 43.53271484 C51.72152961 38.79325789 42.97809164 34.31414043 34.22531128 29.84005737 C25.47124692 25.36492194 16.77463234 20.82096164 8.35058594 15.74169922 C2.05043146 12.07169074 -2.1986933 12.14013113 -8.515625 15.6484375 Z " fill="#83BF8B" transform="translate(511,212)"/>
<path d="M0 0 C0.33 0 0.66 0 1 0 C1 4.29 1 8.58 1 13 C19.81 13 38.62 13 58 13 C58 13.33 58 13.66 58 14 C55.36 14 52.72 14 50 14 C50 37.1 50 60.2 50 84 C74.09 84 98.18 84 123 84 C122.63144852 60.72378598 122.63144852 60.72378598 122.25170898 37.44775391 C122.18371582 32.94995117 122.18371582 32.94995117 122.1532135 30.84555054 C122.13089413 29.37310855 122.1065359 27.90069662 122.08058167 26.42831421 C122.04170382 24.20046277 122.00925919 21.97260216 121.97827148 19.74462891 C121.94829323 17.85932968 121.94829323 17.85932968 121.91770935 15.9359436 C122 13 122 13 123 11 C129.4412349 10.97459272 135.88245681 10.95710902 142.32373047 10.94506836 C144.51383955 10.9400474 146.70394529 10.93322934 148.89404297 10.92456055 C152.04655788 10.91239696 155.19902836 10.90674923 158.3515625 10.90234375 C159.8144017 10.89460182 159.8144017 10.89460182 161.30679321 10.88670349 C165.98880819 10.88631931 170.39501684 11.02573929 175 12 C175 12.66 175 13.32 175 14 C173.35 14 171.7 14 170 14 C170 80.33 170 146.66 170 215 C145 218 145 218 123 218 C122.67 187.31 122.34 156.62 122 125 C98.24 124.67 74.48 124.34 50 124 C50 154.03 50 184.06 50 215 C19 218 19 218 0 218 C0 151.01 0 84.02 0 15 C-6.27 15 -12.54 15 -19 15 C-18.67 14.34 -18.34 13.68 -18 13 C-12.06 13 -6.12 13 0 13 C0 8.71 0 4.42 0 0 Z " fill="#3B5476" transform="translate(335,325)"/>
<path d="M0 0 C2 3.75 2 3.75 2 6 C2.55429687 5.71125 3.10859375 5.4225 3.6796875 5.125 C4.40414063 4.75375 5.12859375 4.3825 5.875 4 C6.95394531 3.443125 6.95394531 3.443125 8.0546875 2.875 C10 2 10 2 12 2 C12 2.66 12 3.32 12 4 C10.02 4.66 8.04 5.32 6 6 C9.08305326 9.30936295 12.72092878 11.09000443 16.71875 13.09765625 C17.48394455 13.48783936 18.2491391 13.87802246 19.03752136 14.2800293 C20.6736609 15.11354235 22.31113145 15.94444692 23.94979858 16.77297974 C27.37922799 18.5070854 30.80212668 20.25389641 34.2253418 22.00022888 C35.85009028 22.8284769 37.47545604 23.65551566 39.1015625 24.48109436 C47.78495509 28.8918024 56.39875707 33.43167982 65 38 C70.54069967 40.93932427 76.08279311 43.87601895 81.625 46.8125 C82.35631134 47.20009491 83.08762268 47.58768982 83.84109497 47.98703003 C97.19134723 55.06135062 110.57931816 62.06007022 124 69 C123.99214478 67.37203491 123.99214478 67.37203491 123.98413086 65.71118164 C123.96608164 61.69882018 123.95456829 57.68646233 123.94506836 53.67407227 C123.94002796 51.93480832 123.9331957 50.19554864 123.92456055 48.45629883 C123.91248208 45.96174063 123.90676892 43.46723827 123.90234375 40.97265625 C123.89718246 40.19036148 123.89202118 39.40806671 123.88670349 38.60206604 C123.88650774 36.73432886 123.93800306 34.86670796 124 33 C126.05095859 30.94904141 130.30293477 31.71847252 133.12890625 31.6484375 C133.95196762 31.62528473 134.77502899 31.60213196 135.62303162 31.57827759 C137.37240208 31.53053656 139.12184281 31.48531521 140.87133789 31.44238281 C143.52714395 31.37588526 146.18243461 31.2978771 148.83789062 31.21875 C150.53904402 31.17377464 152.24021565 31.12948286 153.94140625 31.0859375 C154.72818253 31.06203949 155.5149588 31.03814148 156.32557678 31.01351929 C161.32646903 30.90207564 166.0572043 31.19719693 171 32 C172.7795968 33.7795968 172.17124664 36.39529781 172.20532227 38.80493164 C172.22526749 40.04614273 172.24521271 41.28735382 172.26576233 42.56617737 C172.28274793 43.9308357 172.29962669 45.29549537 172.31640625 46.66015625 C172.33696936 48.04878875 172.35796566 49.4374149 172.37937927 50.82603455 C172.43466647 54.48714059 172.48404626 58.14830373 172.53222656 61.80950928 C172.58239321 65.54297997 172.63810446 69.27636738 172.69335938 73.00976562 C172.80102218 80.3397733 172.90244894 87.66985005 173 95 C176.49607288 96.91778652 179.99397146 98.83221973 183.4921875 100.74609375 C184.47340576 101.28439819 185.45462402 101.82270264 186.46557617 102.37731934 C192.62018872 105.74196058 198.81700188 108.95720934 205.11897278 112.03694153 C208.8763121 113.87686534 212.54020034 115.84141473 216.18359375 117.8984375 C217.0761084 118.40109131 217.96862305 118.90374512 218.88818359 119.42163086 C220.627218 120.40735887 222.36096829 121.40248854 224.08837891 122.40844727 C224.88550293 122.86018311 225.68262695 123.31191895 226.50390625 123.77734375 C227.20330322 124.18202881 227.9027002 124.58671387 228.62329102 125.00366211 C231.66167351 126.3948842 231.66167351 126.3948842 238 127 C238 115.12 238 103.24 238 91 C237.34 91 236.68 91 236 91 C236 89.68 236 88.36 236 87 C233.03 87 230.06 87 227 87 C227 86.34 227 85.68 227 85 C229.97 85 232.94 85 236 85 C236 83.02 236 81.04 236 79 C236.99 79 237.98 79 239 79 C239 61.84 239 44.68 239 27 C239.66 27 240.32 27 241 27 C241 44.16 241 61.32 241 79 C241.99 79 242.98 79 244 79 C244 80.98 244 82.96 244 85 C246.97 85 249.94 85 253 85 C253 85.66 253 86.32 253 87 C249.7 87 246.4 87 243 87 C243 87.99 243 88.98 243 90 C242.34 90 241.68 90 241 90 C241 103.86 241 117.72 241 132 C242.65 132.66 244.3 133.32 246 134 C247.84718156 134.95278474 249.68035796 135.93311893 251.5 136.9375 C252.4178125 137.44152344 253.335625 137.94554687 254.28125 138.46484375 C256.88213729 139.93344821 259.44667972 141.45043063 262 143 C261.67 143.99 261.34 144.98 261 146 C255.73006278 146.45402536 252.15991509 144.95207309 247.625 142.5 C246.98433594 142.16613281 246.34367187 141.83226562 245.68359375 141.48828125 C244.11666329 140.66973549 242.55749759 139.83635487 241 139 C241 140.98 241 142.96 241 145 C243.97 145 246.94 145 250 145 C250 145.66 250 146.32 250 147 C247.03 147 244.06 147 241 147 C241.00138269 148.41771651 241.00138269 148.41771651 241.00279331 149.86407375 C241.02500535 172.87494837 241.04143171 195.8858216 241.05181217 218.89670467 C241.05696567 230.02464619 241.06399037 241.15258061 241.07543945 252.28051758 C241.08541517 261.98104738 241.09186031 271.68157205 241.09408849 281.38210684 C241.09539069 286.51713895 241.09844549 291.65215637 241.10573006 296.78718376 C241.11253582 301.62404923 241.11460769 306.46089402 241.11310768 311.29776382 C241.11338196 313.0694102 241.11535998 314.84105729 241.11920547 316.61269951 C241.15323481 333.10421688 241.15323481 333.10421688 240 341 C240.99 341 241.98 341 243 341 C243 342.65 243 344.3 243 346 C249.27 346 255.54 346 262 346 C262 346.99 262 347.98 262 349 C255.73 349 249.46 349 243 349 C243 349.66 243 350.32 243 351 C242.34 351.33 241.68 351.66 241 352 C240.52998967 355.27555608 240.52998967 355.27555608 240.375 359.0625 C240.30023437 360.35285156 240.22546875 361.64320313 240.1484375 362.97265625 C240.09945313 363.97167969 240.05046875 364.97070312 240 366 C239.34 366 238.68 366 238 366 C238 361.05 238 356.1 238 351 C237.01 351 236.02 351 235 351 C235 350.34 235 349.68 235 349 C218.5 349 202 349 185 349 C185 352.3 185 355.6 185 359 C184.34 359 183.68 359 183 359 C183 355.7 183 352.4 183 349 C66.51 349 -49.98 349 -170 349 C-168.68 351.97 -167.36 354.94 -166 358 C-166 359.32 -166 360.64 -166 362 C-166.66 362 -167.32 362 -168 362 C-168.33773437 361.21753906 -168.67546875 360.43507813 -169.0234375 359.62890625 C-169.69246094 358.11103516 -169.69246094 358.11103516 -170.375 356.5625 C-170.81585938 355.55316406 -171.25671875 354.54382813 -171.7109375 353.50390625 C-172.75076286 350.87856453 -172.75076286 350.87856453 -175 350 C-175 352.64 -175 355.28 -175 358 C-175.33 358 -175.66 358 -176 358 C-176 355.03 -176 352.06 -176 349 C-193.16 349 -210.32 349 -228 349 C-225.525 353.95 -225.525 353.95 -223 359 C-223 359.99 -223 360.98 -223 362 C-223.99 362 -224.98 362 -226 362 C-227.32 358.37 -228.64 354.74 -230 351 C-230.33 354.63 -230.66 358.26 -231 362 C-231.66 362 -232.32 362 -233 362 C-233 357.71 -233 353.42 -233 349 C-240.59 349 -248.18 349 -256 349 C-256.495 347.515 -256.495 347.515 -257 346 C-249.41 346 -241.82 346 -234 346 C-234 280 -234 214 -234 146 C-236.97 146 -239.94 146 -243 146 C-243 145.34 -243 144.68 -243 144 C-240.03 144 -237.06 144 -234 144 C-234 142.02 -234 140.04 -234 138 C-234.91523438 138.433125 -235.83046875 138.86625 -236.7734375 139.3125 C-237.96195312 139.869375 -239.15046875 140.42625 -240.375 141 C-241.55835938 141.556875 -242.74171875 142.11375 -243.9609375 142.6875 C-247 144 -247 144 -249 144 C-249 144.66 -249 145.32 -249 146 C-250.65 146 -252.3 146 -254 146 C-254.66 144.68 -255.32 143.36 -256 142 C-255.36908447 141.85119385 -254.73816895 141.7023877 -254.08813477 141.54907227 C-246.50813337 139.45078021 -239.52432924 136.69428892 -235 130 C-231.18558363 117.24692057 -233.11466871 102.10182894 -234 89 C-237.63 88.34 -241.26 87.68 -245 87 C-245 86.34 -245 85.68 -245 85 C-242.36 85 -239.72 85 -237 85 C-237 83.02 -237 81.04 -237 79 C-235.68 79 -234.36 79 -233 79 C-233.00785522 78.01495483 -233.00785522 78.01495483 -233.01586914 77.01000977 C-233.12785697 60.64419413 -232.79719107 44.34665737 -232 28 C-231.67 28 -231.34 28 -231 28 C-231 44.5 -231 61 -231 78 C-230.01 78 -229.02 78 -228 78 C-228 80.31 -228 82.62 -228 85 C-225.36 85 -222.72 85 -220 85 C-220 85.66 -220 86.32 -220 87 C-225.445 87.495 -225.445 87.495 -231 88 C-231 100.87 -231 113.74 -231 127 C-226.60525801 125.11653915 -222.56273196 123.32051611 -218.40234375 121.06640625 C-217.36529297 120.50630859 -216.32824219 119.94621094 -215.25976562 119.36914062 C-214.16341797 118.77294922 -213.06707031 118.17675781 -211.9375 117.5625 C-210.78572266 116.93923828 -209.63394531 116.31597656 -208.44726562 115.67382812 C-200.3925855 111.31374131 -192.35236379 106.92695221 -184.31640625 102.5324707 C-177.37413822 98.73903491 -170.40812144 94.99102431 -163.4375 91.25 C-153.94050103 86.15172345 -144.49131133 80.97275414 -135.0625 75.75 C-126.35861317 70.92907082 -117.62949469 66.17017661 -108.80444336 61.57397461 C-103.03450033 58.56386953 -97.32674582 55.44956589 -91.625 52.3125 C-82.37134599 47.22881982 -73.01409611 42.36170938 -63.62451172 37.53613281 C-54.68442313 32.93890636 -45.81920407 28.22400219 -37.01318359 23.37402344 C-26.76647992 17.7430385 -16.38539819 12.36967388 -6 7 C-7.98 5.02 -7.98 5.02 -10 3 C-5.545 3.99 -5.545 3.99 -1 5 C-0.67 3.35 -0.34 1.7 0 0 Z M-8.515625 15.6484375 C-9.58474121 16.23262451 -10.65385742 16.81681152 -11.75537109 17.41870117 C-12.92025922 18.07077967 -14.08513515 18.72287994 -15.25 19.375 C-16.47787078 20.05005504 -17.70657007 20.72360497 -18.93603516 21.39575195 C-20.89222704 22.46522986 -22.84792563 23.5355055 -24.80130005 24.61012268 C-31.88481632 28.50393601 -39.03447749 32.26990958 -46.18692017 36.03512573 C-57.22359805 41.84770322 -68.21916508 47.72516158 -79.14990234 53.73510742 C-85.88244877 57.42337754 -92.68054521 60.97540222 -99.5 64.5 C-110.13820368 69.99939655 -120.66401955 75.68103246 -131.15966797 81.44677734 C-135.25329895 83.68536083 -139.36152687 85.89662567 -143.46850586 88.1105957 C-154.06924961 93.8107307 -154.06924961 93.8107307 -164.5 99.8125 C-168.65920881 102.28278154 -172.91035544 104.49290196 -177.25 106.625 C-184.52044317 110.20083587 -191.67708782 113.97469038 -198.8125 117.8125 C-199.86920898 118.37598145 -200.92591797 118.93946289 -202.01464844 119.52001953 C-203.00625977 120.0561084 -203.99787109 120.59219727 -205.01953125 121.14453125 C-205.90745361 121.62253174 -206.79537598 122.10053223 -207.71020508 122.59301758 C-209.99635304 123.85571365 -209.99635304 123.85571365 -211.4362793 125.5534668 C-213 127 -213 127 -219 129 C-222.96 130.98 -226.92 132.96 -231 135 C-231 204.63 -231 274.26 -231 346 C-212.85 346 -194.7 346 -176 346 C-176 341.71 -176 337.42 -176 333 C-175.34 333 -174.68 333 -174 333 C-174 337.29 -174 341.58 -174 346 C-39.36 346 95.28 346 234 346 C234 344.35 234 342.7 234 341 C235.32 341 236.64 341 238 341 C238 273.68 238 206.36 238 137 C224.76499399 128.84610029 224.76499399 128.84610029 216 128 C216.33 127.34 216.66 126.68 217 126 C203.13286013 118.24879319 203.13286013 118.24879319 189 111 C182.89670861 108.01050595 176.93942381 104.80261656 171 101.5 C165.10122039 98.22048375 159.18655527 95.03091595 153.125 92.0625 C145.76193835 88.45641038 138.57991346 84.54598211 131.41455078 80.56274414 C124.757396 76.88438192 117.99045774 73.46706423 111.18066406 70.08398438 C104.37996648 66.70243079 97.62725044 63.22701475 90.875 59.75 C90.15878479 59.38149933 89.44256958 59.01299866 88.70465088 58.6333313 C79.17564709 53.7263416 69.7147839 48.71956002 60.33447266 43.53271484 C51.72152961 38.79325789 42.97809164 34.31414043 34.22531128 29.84005737 C25.47124692 25.36492194 16.77463234 20.82096164 8.35058594 15.74169922 C2.05043146 12.07169074 -2.1986933 12.14013113 -8.515625 15.6484375 Z " fill="#3C537B" transform="translate(511,212)"/>
<path d="M0 0 C3.04350399 4.18683089 4.65224924 8.99836677 6.4375 13.8125 C6.76878906 14.69381592 7.10007812 15.57513184 7.44140625 16.4831543 C8.19473043 18.48925252 8.94570659 20.49623342 9.69482422 22.50390625 C11.18838138 26.50460556 12.68950698 30.50242689 14.19140625 34.5 C17.13278127 42.33139811 20.06789082 50.16512811 23 58 C27.38441908 49.43794415 31.48594397 40.84932377 35.125 31.9375 C35.55240479 30.90254395 35.97980957 29.86758789 36.42016602 28.80126953 C39.03899492 22.43390122 41.58497877 16.04686372 43.96484375 9.5859375 C44.47724609 8.30589844 44.47724609 8.30589844 45 7 C45.39316406 5.94039062 45.78632812 4.88078125 46.19140625 3.7890625 C48 1 48 1 51.20703125 -0.35546875 C55.0988711 -1.01680096 58.74040956 -1.30052703 62.6875 -1.3125 C63.97011719 -1.32925781 65.25273438 -1.34601562 66.57421875 -1.36328125 C70.17430281 -0.98151635 71.60242488 -0.67758389 74 2 C74.83641712 5.28399396 75.12896886 8.38994633 75.17578125 11.76953125 C75.48865373 25.87745311 76.49920297 39.83664636 77.875 53.875 C77.99677109 55.16478256 77.99677109 55.16478256 78.1210022 56.48062134 C78.96505167 65.34647298 79.90773812 73.95400952 82.32080078 82.55908203 C83.00668007 85.02400697 83.52657149 87.4864943 84 90 C79.2309364 91.87917577 74.88583452 92.33587942 69.8125 92.3125 C69.10158203 92.32861328 68.39066406 92.34472656 67.65820312 92.36132812 C62.53869494 92.36614422 62.53869494 92.36614422 60.375 90.89550781 C55.00645363 83.49469212 55.27870969 68.97161899 54.49194336 60.07543945 C54.31275088 58.06531425 54.11717134 56.05725297 53.91992188 54.04882812 C53.0374314 44.67359428 52.85209232 35.40896331 53 26 C52.34 26 51.68 26 51 26 C50.89131592 26.85940186 50.78263184 27.71880371 50.6706543 28.60424805 C49.96209749 32.19191338 48.81266663 35.02127287 47.26953125 38.33203125 C46.71059805 39.5475636 46.15176384 40.76314147 45.59301758 41.97875977 C45.30165924 42.60565704 45.0103009 43.23255432 44.71011353 43.87844849 C39.9854375 54.05851658 35.53708978 64.2295168 32.05078125 74.91015625 C29.7735343 81.60644746 29.7735343 81.60644746 25.4375 83.8125 C20.76780415 85.34646542 16.71842996 85.36563093 12 84 C8.04053299 81.90820611 6.57311868 80.61374562 5.07788086 76.40356445 C4.79307861 75.379646 4.50827637 74.35572754 4.21484375 73.30078125 C2.0744944 66.03702429 -0.55731903 59.03822274 -3.31884766 51.99438477 C-4.1356516 49.91032261 -4.94526707 47.82357026 -5.75390625 45.73632812 C-8.59863436 38.24575647 -8.59863436 38.24575647 -12 31 C-13.95080332 32.95080332 -13.61709747 36.52473015 -13.90234375 39.19921875 C-13.98442581 39.93834 -14.06650787 40.67746124 -14.15107727 41.4389801 C-14.41782649 43.854673 -14.67789108 46.27103014 -14.9375 48.6875 C-15.11736842 50.33367466 -15.2973816 51.97983351 -15.47753906 53.62597656 C-16.79439919 65.73812649 -17.98376753 77.85869625 -19 90 C-23.62369023 91.80679587 -27.42528653 92.21839082 -32.375 92.125 C-33.62023437 92.10695313 -34.86546875 92.08890625 -36.1484375 92.0703125 C-37.08945312 92.04710937 -38.03046875 92.02390625 -39 92 C-38.44418928 84.79422256 -37.55301303 77.74503525 -36.2578125 70.63671875 C-36.08877411 69.68344193 -35.91973572 68.7301651 -35.74557495 67.7480011 C-35.2097318 64.72703934 -34.66811688 61.70716193 -34.125 58.6875 C-28.93863024 29.99310057 -28.93863024 29.99310057 -26 1 C-17.44834567 -2.47023654 -8.73959435 -3.74554043 0 0 Z " fill="#364D74" transform="translate(526,648)"/>
<path d="M0 0 C1.29808594 -0.02578125 2.59617187 -0.0515625 3.93359375 -0.078125 C7.92786229 0.28303599 9.5576337 0.61867208 12.5625 3.25 C13.01590965 6.30841876 13.1472985 8.80463857 13.05078125 11.85546875 C13.04370651 12.69467361 13.03663177 13.53387848 13.02934265 14.39851379 C13.00135167 17.07908259 12.93860801 19.75756267 12.875 22.4375 C12.84992305 24.25452712 12.82710882 26.07158699 12.80664062 27.88867188 C12.75575862 32.34389987 12.65792714 36.79461271 12.5625 41.25 C24.7725 41.25 36.9825 41.25 49.5625 41.25 C49.5625 28.38 49.5625 15.51 49.5625 2.25 C54.09402339 0.43739064 56.35637359 -0.04600657 61.0625 -0.0625 C62.1659375 -0.07925781 63.269375 -0.09601562 64.40625 -0.11328125 C68.0718105 0.30862113 69.7300892 0.88154598 72.5625 3.25 C73.04687223 5.99982309 73.18760554 8.13480143 73.11425781 10.88330078 C73.11338165 11.65932144 73.11250549 12.4353421 73.11160278 13.23487854 C73.1030083 15.80575553 73.05919779 18.37481022 73.015625 20.9453125 C73.00375325 22.73549022 72.99424526 24.52568504 72.98699951 26.31588745 C72.96221575 31.03760695 72.90833684 35.75854318 72.84753418 40.47991943 C72.76730576 47.1096659 72.72595664 53.73978169 72.68084717 60.36984253 C72.65676815 63.899273 72.62162256 67.42831667 72.57745361 70.95755005 C72.56101839 72.58514346 72.54463783 74.21273743 72.52832031 75.84033203 C72.51686981 76.56067123 72.50541931 77.28101044 72.49362183 78.0231781 C72.4549572 82.57998008 72.81408887 86.96437689 73.44260788 91.47924614 C73.48217228 92.06359491 73.52173668 92.64794369 73.5625 93.25 C70.1421912 96.6703088 60.68420972 95.46518503 56.234375 95.578125 C53.5625 95.25 53.5625 95.25 51.765625 93.921875 C48.90056524 89.94055818 49.4343312 85.53650666 49.46484375 80.86328125 C49.46585083 80.13894897 49.46685791 79.4146167 49.46789551 78.66833496 C49.47312174 75.96637384 49.48708302 73.2644353 49.5 70.5625 C49.5309375 61.4978125 49.5309375 61.4978125 49.5625 52.25 C37.3525 52.25 25.1425 52.25 12.5625 52.25 C12.8925 66.11 13.2225 79.97 13.5625 94.25 C8.62750375 95.07249937 4.25740787 95.46377357 -0.6875 95.5 C-1.40679687 95.520625 -2.12609375 95.54125 -2.8671875 95.5625 C-4.953125 95.578125 -4.953125 95.578125 -8.4375 95.25 C-11.03221854 91.35792219 -10.7447327 88.073151 -10.75634766 83.5559082 C-10.76639328 82.6678952 -10.7764389 81.7798822 -10.78678894 80.86495972 C-10.8177038 77.92690687 -10.83467915 74.98894549 -10.8515625 72.05078125 C-10.87026747 70.0148184 -10.88984037 67.97886336 -10.9102478 65.94291687 C-10.9616459 60.58194575 -11.00123053 55.22094948 -11.03839111 49.85986328 C-11.07838265 44.39023578 -11.12949709 38.92071361 -11.1796875 33.45117188 C-11.2765377 22.71752183 -11.36091337 11.98381241 -11.4375 1.25 C-7.57968744 0.19474526 -4.00764121 0.04766273 0 0 Z " fill="#364C74" transform="translate(262.4375,644.75)"/>
<path d="M0 0 C6.98648338 6.77477177 9.60821892 17.56732635 12.68554688 26.5612793 C15.01353059 33.2662634 17.87347113 39.62498545 21 46 C24.91484284 37.43548944 28.08226282 29.25756579 30 20 C30.17789063 19.24460937 30.35578125 18.48921875 30.5390625 17.7109375 C31.18978461 13.88380918 31.36444146 10.06100546 31.5625 6.1875 C31.62727539 5.00510742 31.62727539 5.00510742 31.69335938 3.79882812 C31.79878321 1.86605785 31.89983094 -0.06695026 32 -2 C44.99028562 -3.94071737 44.99028562 -3.94071737 49.9375 -1.625 C52 0 52 0 53 2 C53.60950071 8.21512178 52.63185604 13.54185362 50.5625 19.375 C50.29663086 20.14247559 50.03076172 20.90995117 49.75683594 21.70068359 C42.95224175 40.7080806 33.22474882 58.69261357 20 74 C19.30390625 74.84046875 18.6078125 75.6809375 17.890625 76.546875 C10.48680882 85.21091521 0.28110442 94.89980829 -11.5703125 96.3046875 C-17.16173922 96.45490493 -22.17423173 95.97803779 -26.875 92.6875 C-28.39254248 90.41118628 -28.07877641 88.68277438 -28 86 C-26.89205078 85.88785156 -26.89205078 85.88785156 -25.76171875 85.7734375 C-14.40677317 84.3017673 -5.32736689 79.92284193 2 71 C2.47953125 70.46761719 2.9590625 69.93523437 3.453125 69.38671875 C4.97334701 67.54380735 4.97334701 67.54380735 6 64 C4.75627262 57.3837781 1.27056383 51.36130113 -1.796875 45.4296875 C-2.91653624 43.16855343 -3.85300901 40.91913996 -4.75 38.5625 C-9.47560004 26.43282215 -15.41405323 14.71194607 -21.78515625 3.37109375 C-23 1 -23 1 -23 -1 C-14.90372905 -3.09903321 -7.44931422 -4.90977528 0 0 Z " fill="#354C74" transform="translate(429,681)"/>
<path d="M0 0 C2.48472113 2.02514873 3.8360743 3.52616428 4.921875 6.56640625 C5.45723926 12.18773098 5.13353745 15.74891258 1.921875 20.56640625 C-2.93188313 25.66285229 -8.44579303 27.49856712 -15.078125 29.56640625 C-16.08359375 29.90865234 -16.08359375 29.90865234 -17.109375 30.2578125 C-23.30604415 32.1351932 -29.66522659 31.74236993 -36.078125 31.56640625 C-32.95254954 41.39027874 -32.95254954 41.39027874 -25.44140625 47.859375 C-17.62149756 50.19888487 -10.49814243 48.91671436 -3.234375 45.5390625 C-1.18710275 44.61556469 0.73195857 44.03922912 2.921875 43.56640625 C2.921875 42.90640625 2.921875 42.24640625 2.921875 41.56640625 C3.581875 41.56640625 4.241875 41.56640625 4.921875 41.56640625 C5.52604167 48.81640625 5.52604167 48.81640625 3.109375 51.81640625 C-1.42670759 54.30680454 -6.15280942 56.00293052 -11.078125 57.56640625 C-11.69429687 57.76234375 -12.31046875 57.95828125 -12.9453125 58.16015625 C-23.93499679 60.25342945 -35.13296515 58.99287387 -44.609375 52.953125 C-50.58512637 48.57802132 -54.82058145 43.72005691 -57.078125 36.56640625 C-57.41865529 33.29284946 -57.44828442 30.04307879 -57.453125 26.75390625 C-57.47761719 25.88958984 -57.50210938 25.02527344 -57.52734375 24.13476562 C-57.5632774 16.19941804 -55.009461 9.96625522 -49.66796875 4.0078125 C-36.13943806 -8.25761213 -14.92364653 -10.6781264 0 0 Z " fill="#364D74" transform="translate(711.078125,683.43359375)"/>
<path d="M0 0 C2.20221225 2.07267035 3.49873901 3.77199369 3.89453125 6.8046875 C3.93472337 15.62015995 3.93472337 15.62015995 0.59375 19.5 C-9.43792727 29.1682107 -20.1050357 29.75744467 -33.51171875 29.5703125 C-34.94451172 29.53550781 -34.94451172 29.53550781 -36.40625 29.5 C-33.87802658 38.69940369 -33.87802658 38.69940369 -27.71875 45.63671875 C-19.41770679 48.73558792 -9.32881988 46.75366237 -1.48046875 43.375 C0.59375 42.5 0.59375 42.5 2.59375 42.5 C2.59375 41.84 2.59375 41.18 2.59375 40.5 C3.25375 40.5 3.91375 40.5 4.59375 40.5 C4.83151751 43.35321018 5.00291783 45.70043061 4.59375 48.5 C0.44709828 53.31546652 -7.18651662 56.30479004 -13.40625 57.5 C-26.09556135 58.4280509 -38.49068333 57.01052686 -48.40625 48.5 C-55.52813248 41.98491468 -58.56693897 34.19613865 -59.03125 24.625 C-58.70901917 15.06202053 -55.04244778 7.65187805 -48.21875 1 C-34.50813909 -10.13987137 -13.85096842 -10.89912269 0 0 Z " fill="#364D74" transform="translate(400.40625,684.5)"/>
<path d="M0 0 C-0.60990891 3.55780196 -1.5783681 6.6828589 -3 10 C-5.78515875 8.90281625 -8.47781926 7.76550916 -11.16796875 6.4453125 C-15.23057725 4.70343243 -18.87897678 4.58556382 -23.25 4.6875 C-24.30960938 4.68266602 -24.30960938 4.68266602 -25.390625 4.67773438 C-29.12158222 4.71659851 -30.82455891 4.88303927 -34 7 C-34.58350505 9.45709375 -34.58350505 9.45709375 -34 12 C-30.69574464 15.15444026 -26.60224071 16.39484882 -22.375 17.875 C-3.06142494 24.90786259 -3.06142494 24.90786259 3 34 C3.72802098 38.9183743 3.54486864 42.91026273 1.3125 47.375 C-5.34406268 54.93109818 -13.9095028 58.76928796 -23.875 59.45703125 C-35.29091305 59.85303392 -44.76260129 58.26088545 -55 53 C-55.08159574 48.83861737 -54.98248524 45.0527516 -54 41 C-51.87915128 41.98467976 -50.09929343 42.91541671 -48.3125 44.4375 C-41.59648563 48.97534754 -33.93697411 49.8955164 -26 49 C-22.40720543 48.04318655 -22.40720543 48.04318655 -20 46 C-19.03093173 43.41585574 -19.03093173 43.41585574 -19 41 C-24.18722813 36.16222724 -30.56795769 34.13503685 -37.07617188 31.61914062 C-44.08004428 28.77240539 -50.44016776 25.15972739 -54.5 18.5625 C-55.62670961 12.78811323 -55.97398355 8.83812141 -52.75 3.8125 C-41.05276935 -10.36934527 -14.62597126 -8.28307556 0 0 Z " fill="#374E76" transform="translate(778,683)"/>
<path d="M0 0 C11.22 0 22.44 0 34 0 C34 17.49 34 34.98 34 53 C29.63533386 51.54511129 26.26205973 50.21516459 22.3046875 48.06640625 C21.25925781 47.49986328 20.21382812 46.93332031 19.13671875 46.34960938 C17.52216797 45.46499023 17.52216797 45.46499023 15.875 44.5625 C14.79089844 43.97662109 13.70679688 43.39074219 12.58984375 42.78710938 C6.62801506 39.54089734 6.62801506 39.54089734 4 38 C3.23606934 37.60570801 2.47213867 37.21141602 1.68505859 36.80517578 C-0.98231448 33.94766253 -0.49237428 30.74763058 -0.390625 27.05078125 C-0.38496521 26.27816452 -0.37930542 25.50554779 -0.37347412 24.70951843 C-0.35109327 22.24321371 -0.30089703 19.77836508 -0.25 17.3125 C-0.22993706 15.63999495 -0.21168592 13.96746711 -0.1953125 12.29492188 C-0.15462447 8.19560319 -0.07634738 4.09942994 0 0 Z " fill="#F9F7F8" transform="translate(642,250)"/>
<path d="M0 0 C1.50240234 -0.04253906 1.50240234 -0.04253906 3.03515625 -0.0859375 C6.91066939 0.52955449 8.29056094 1.45467724 10.9375 4.375 C11.61069676 7.65209716 11.446981 10.85681026 11.3203125 14.1875 C11.30612274 15.15220215 11.29193298 16.1169043 11.27731323 17.11083984 C11.22949084 20.19988615 11.1486979 23.28680375 11.0625 26.375 C10.27737063 44.13957166 10.27737063 44.13957166 13.9375 61.375 C7.83834526 63.59287445 1.38045148 64.44731068 -5.0625 63.375 C-9.61021698 60.32141625 -10.84602503 55.48267705 -12.0625 50.375 C-12.43587838 46.5732499 -12.41436522 42.81310239 -12.35546875 38.99609375 C-12.34910149 37.41708031 -12.34910149 37.41708031 -12.34260559 35.8061676 C-12.32593768 32.47467458 -12.2883075 29.14380732 -12.25 25.8125 C-12.23493781 23.54102442 -12.2212521 21.26953927 -12.20898438 18.99804688 C-12.17607326 13.4568211 -12.12599386 7.91595528 -12.0625 2.375 C-7.89425349 0.92293949 -4.42892708 0.05714745 0 0 Z " fill="#384E76" transform="translate(633.0625,677.625)"/>
<path d="M0 0 C-0.33 1.98 -0.66 3.96 -1 6 C-0.34 6 0.32 6 1 6 C1 10.29 1 14.58 1 19 C19.81 19 38.62 19 58 19 C57.67 19.66 57.34 20.32 57 21 C56.31334259 20.98525131 55.62668518 20.97050262 54.91921997 20.95530701 C48.36155252 20.81569075 41.80378427 20.68282467 35.24583626 20.5570364 C31.87652465 20.49218486 28.50734593 20.42422403 25.13818359 20.35180664 C10.35660552 20.03572604 -4.25006665 19.90711251 -19 21 C-13.06 21.33 -7.12 21.66 -1 22 C-1 88.99 -1 155.98 -1 225 C-1.33 225 -1.66 225 -2 225 C-2 158.34 -2 91.68 -2 23 C-15.53 23 -29.06 23 -43 23 C-43 22.67 -43 22.34 -43 22 C-42.236875 21.896875 -41.47375 21.79375 -40.6875 21.6875 C-38.0266449 21.26034043 -38.0266449 21.26034043 -36.75390625 19.68969727 C-34.25752629 17.2847076 -31.2988898 15.86246198 -28.25 14.27734375 C-27.59547852 13.93119522 -26.94095703 13.58504669 -26.26660156 13.22840881 C-24.18042763 12.12623784 -22.09043608 11.03156225 -20 9.9375 C-17.91029933 8.83853104 -15.82143466 7.73800754 -13.73339844 6.63587952 C-12.43569716 5.95147747 -11.13690877 5.26913175 -9.83691406 4.58909607 C-1.10629703 0 -1.10629703 0 0 0 Z " fill="#E5E7EC" transform="translate(336,318)"/>
<path d="M0 0 C2.24899648 1.46293946 3.77661825 2.7563615 4.984375 5.171875 C5.50116414 8.34643686 5.52199295 10.36131255 3.71484375 13.0859375 C-1.26231136 18.97133259 -1.26231136 18.97133259 -5.40625 19.4453125 C-14.07559649 19.75324011 -14.07559649 19.75324011 -17.640625 16.796875 C-20.20185947 13.96603691 -20.91393117 13.08711947 -21.328125 9.359375 C-20.93944974 5.39488733 -19.80403668 3.96028668 -17.015625 1.171875 C-12.1216723 -1.85771477 -5.32442687 -2.18755522 0 0 Z " fill="#3D547B" transform="translate(641.015625,647.828125)"/>
<path d="M0 0 C3 1.5 3 1.5 5 4 C5.65302991 8.57120935 5.66040483 10.76174094 3.5 14.8125 C-3.24786603 20.71688277 -11.43219859 20.62124049 -20 21 C-20.4955681 15.05318274 -19.40279141 10.94857165 -16 6 C-11.18986347 1.03034364 -6.9532511 -0.91735053 0 0 Z " fill="#F5F3F4" transform="translate(694,686)"/>
<path d="M0 0 C3.0625 1.5 3.0625 1.5 5 4 C5.65302991 8.57120935 5.66040483 10.76174094 3.5 14.8125 C-3.24231067 20.71202184 -10.48154289 20.38333057 -19 20 C-19.33643576 14.5048826 -18.61021543 10.86040115 -16 6 C-10.9190611 0.29943441 -7.48392394 -0.89032888 0 0 Z " fill="#F7F5F6" transform="translate(383,686)"/>
<path d="M0 0 C0 1.65 0 3.3 0 5 C6.27 5 12.54 5 19 5 C19 5.99 19 6.98 19 8 C12.73 8 6.46 8 0 8 C0 8.66 0 9.32 0 10 C-0.66 10.33 -1.32 10.66 -2 11 C-2.47001033 14.27555608 -2.47001033 14.27555608 -2.625 18.0625 C-2.69976563 19.35285156 -2.77453125 20.64320313 -2.8515625 21.97265625 C-2.92503906 23.47119141 -2.92503906 23.47119141 -3 25 C-3.66 25 -4.32 25 -5 25 C-5 20.05 -5 15.1 -5 10 C-5.99 10 -6.98 10 -8 10 C-8.495 9.01 -8.495 9.01 -9 8 C-36.06 7.67 -63.12 7.34 -91 7 C-91 6.67 -91 6.34 -91 6 C-90.3201001 5.97494385 -89.6402002 5.9498877 -88.93969727 5.92407227 C-85.81382721 5.80694178 -82.68817372 5.68475344 -79.5625 5.5625 C-78.49322266 5.52318359 -77.42394531 5.48386719 -76.32226562 5.44335938 C-74.74155273 5.38051758 -74.74155273 5.38051758 -73.12890625 5.31640625 C-72.17056885 5.27974854 -71.21223145 5.24309082 -70.22485352 5.20532227 C-67.72928443 5.0464326 -65.31744569 4.79103787 -62.84179688 4.47265625 C-57.34847605 3.84254225 -51.92166623 3.97556953 -46.40234375 4.12109375 C-45.32747208 4.14470474 -44.2526004 4.16831573 -43.14515686 4.19264221 C-39.74244916 4.26866316 -36.34000535 4.35294925 -32.9375 4.4375 C-30.61785107 4.49078245 -28.2981896 4.54352232 -25.97851562 4.59570312 C-20.31885037 4.72419399 -14.65937807 4.85945484 -9 5 C-9 3.35 -9 1.7 -9 0 C-5.67465243 -1.10844919 -3.37817425 -0.84454356 0 0 Z " fill="#445B82" transform="translate(754,553)"/>
<path d="M0 0 C0.66 0 1.32 0 2 0 C2 17.16 2 34.32 2 52 C2.99 52 3.98 52 5 52 C5 53.98 5 55.96 5 58 C7.97 58 10.94 58 14 58 C14 58.66 14 59.32 14 60 C10.7 60 7.4 60 4 60 C4 60.99 4 61.98 4 63 C2.515 63.495 2.515 63.495 1 64 C0.67 76.87 0.34 89.74 0 103 C-0.66 103 -1.32 103 -2 103 C-2 102.34 -2 101.68 -2 101 C-3.32 100.67 -4.64 100.34 -6 100 C-4.35 100 -2.7 100 -1 100 C-1 88.12 -1 76.24 -1 64 C-1.66 64 -2.32 64 -3 64 C-3 62.68 -3 61.36 -3 60 C-5.97 60 -8.94 60 -12 60 C-12 59.34 -12 58.68 -12 58 C-9.03 58 -6.06 58 -3 58 C-3 56.02 -3 54.04 -3 52 C-2.01 52 -1.02 52 0 52 C0 34.84 0 17.68 0 0 Z " fill="#435881" transform="translate(750,239)"/>
<path d="M0 0 C0.66 0.33 1.32 0.66 2 1 C4.37123246 1.23029956 6.74741943 1.41119942 9.125 1.5625 C10.40632813 1.64628906 11.68765625 1.73007812 13.0078125 1.81640625 C14.48894531 1.90728516 14.48894531 1.90728516 16 2 C16 2.33 16 2.66 16 3 C21.94 3.33 27.88 3.66 34 4 C34 70.99 34 137.98 34 207 C33.67 207 33.34 207 33 207 C33 140.34 33 73.68 33 5 C19.47 5 5.94 5 -8 5 C-8 4.67 -8 4.34 -8 4 C-7.236875 3.896875 -6.47375 3.79375 -5.6875 3.6875 C-2.82940576 2.95635961 -1.84257115 2.23048087 0 0 Z " fill="#B4BAC9" transform="translate(301,336)"/>
<path d="M0 0 C35.97 0 71.94 0 109 0 C109 0.33 109 0.66 109 1 C128.14 1.33 147.28 1.66 167 2 C167 2.33 167 2.66 167 3 C150.83 3 134.66 3 118 3 C118 6.3 118 9.6 118 13 C117.34 13 116.68 13 116 13 C116 9.7 116 6.4 116 3 C97.52 3 79.04 3 60 3 C60 2.34 60 1.68 60 1 C40.2 1 20.4 1 0 1 C0 0.67 0 0.34 0 0 Z " fill="#6F82A3" transform="translate(578,558)"/>
<path d="M0 0 C0.33 0 0.66 0 1 0 C1 16.5 1 33 1 50 C1.99 50 2.98 50 4 50 C4 52.31 4 54.62 4 57 C6.64 57 9.28 57 12 57 C12 57.66 12 58.32 12 59 C6.555 59.495 6.555 59.495 1 60 C1 61.98 1 63.96 1 66 C0.67 66 0.34 66 0 66 C-0.33 78.21 -0.66 90.42 -1 103 C-1.66 102.67 -2.32 102.34 -3 102 C-2.67 88.47 -2.34 74.94 -2 61 C-5.63 60.34 -9.26 59.68 -13 59 C-13 58.34 -13 57.68 -13 57 C-10.36 57 -7.72 57 -5 57 C-5 55.02 -5 53.04 -5 51 C-3.68 51 -2.36 51 -1 51 C-1.00523682 50.34330322 -1.01047363 49.68660645 -1.01586914 49.01000977 C-1.12785697 32.64419413 -0.79719107 16.34665737 0 0 Z " fill="#485E83" transform="translate(279,240)"/>
<path d="M0 0 C0.66 0 1.32 0 2 0 C2 5.28 2 10.56 2 16 C3.32 16 4.64 16 6 16 C6.67595315 17.41225926 7.34040059 18.83002905 8 20.25 C8.37125 21.03890625 8.7425 21.8278125 9.125 22.640625 C10 25 10 25 10 29 C9.34 29 8.68 29 8 29 C7.66226563 28.21753906 7.32453125 27.43507813 6.9765625 26.62890625 C6.53054688 25.61699219 6.08453125 24.60507812 5.625 23.5625 C5.18414062 22.55316406 4.74328125 21.54382813 4.2890625 20.50390625 C3.24923714 17.87856453 3.24923714 17.87856453 1 17 C1 19.64 1 22.28 1 25 C0.67 25 0.34 25 0 25 C0 22.03 0 19.06 0 16 C-16.83 16 -33.66 16 -51 16 C-51 15.67 -51 15.34 -51 15 C-41.76 14.67 -32.52 14.34 -23 14 C-23 13.67 -23 13.34 -23 13 C-15.41 13 -7.82 13 0 13 C0 8.71 0 4.42 0 0 Z " fill="#5F7394" transform="translate(335,545)"/>
<path d="M0 0 C0.33 0 0.66 0 1 0 C1.90942519 26.39509875 2.38738577 52.60646165 1 79 C0.01 79.495 0.01 79.495 -1 80 C-1.17706787 53.31995764 -0.66474252 26.67102573 0 0 Z " fill="#314975" transform="translate(750,350)"/>
<path d="M0 0 C1.2360498 -0.00193359 2.47209961 -0.00386719 3.74560547 -0.00585938 C5.08561342 -0.0017488 6.42562005 0.00281744 7.765625 0.0078125 C8.77039886 0.00914185 8.77039886 0.00914185 9.79547119 0.01049805 C21.88796357 0.02930272 33.9435285 0.43007092 46.015625 1.1328125 C46.015625 1.4628125 46.015625 1.7928125 46.015625 2.1328125 C29.515625 2.4628125 13.015625 2.7928125 -3.984375 3.1328125 C-2.33681752 8.58435469 -2.33681752 8.58435469 -0.859375 11.3203125 C0.015625 13.1328125 0.015625 13.1328125 0.015625 16.1328125 C-0.974375 16.1328125 -1.964375 16.1328125 -2.984375 16.1328125 C-6.42856634 6.72278972 -6.42856634 6.72278972 -5.984375 2.1328125 C-6.644375 1.8028125 -7.304375 1.4728125 -7.984375 1.1328125 C-5.24748932 -0.23563034 -3.06230075 0.00312207 0 0 Z " fill="#3A5784" transform="translate(287.984375,557.8671875)"/>
<path d="M0 0 C1.05682228 0.03185898 1.05682228 0.03185898 2.13499451 0.06436157 C3.61149491 0.11024109 5.08790463 0.15913167 6.56420898 0.2109375 C8.80630236 0.28898274 11.04853053 0.35615756 13.29101562 0.421875 C19.67972563 0.62632718 25.92950887 0.91544537 32.24609375 1.9140625 C32.24609375 2.2440625 32.24609375 2.5740625 32.24609375 2.9140625 C8.48609375 2.9140625 -15.27390625 2.9140625 -39.75390625 2.9140625 C-39.75390625 2.5840625 -39.75390625 2.2540625 -39.75390625 1.9140625 C-38.72620117 1.87647827 -38.72620117 1.87647827 -37.67773438 1.83813477 C-34.53631275 1.72120643 -31.39512077 1.59892376 -28.25390625 1.4765625 C-26.63742187 1.41758789 -26.63742187 1.41758789 -24.98828125 1.35742188 C-23.93125 1.31552734 -22.87421875 1.27363281 -21.78515625 1.23046875 C-20.82158203 1.19381104 -19.85800781 1.15715332 -18.86523438 1.11938477 C-16.52311127 0.96482375 -14.18771392 0.70275473 -11.86157227 0.38891602 C-7.87909515 -0.12951174 -4.01850884 -0.12639805 0 0 Z " fill="#395786" transform="translate(702.75390625,557.0859375)"/>
<path d="M0 0 C7.36897044 -0.0252908 14.73792974 -0.04284179 22.10693359 -0.05493164 C24.61540139 -0.05997003 27.12386624 -0.06680084 29.63232422 -0.07543945 C33.2314527 -0.08752661 36.83054247 -0.09323315 40.4296875 -0.09765625 C42.12035843 -0.10539818 42.12035843 -0.10539818 43.84518433 -0.11329651 C44.88611237 -0.11337204 45.92704041 -0.11344757 46.99951172 -0.11352539 C47.91884491 -0.115746 48.8381781 -0.11796661 49.78536987 -0.12025452 C52 0 52 0 54 1 C54 6.61 54 12.22 54 18 C53.01 17.67 52.02 17.34 51 17 C51 11.72 51 6.44 51 1 C25.755 1.495 25.755 1.495 0 2 C0 1.34 0 0.68 0 0 Z " fill="#EDECF1" transform="translate(283,561)"/>
<path d="M0 0 C0.66 0.33 1.32 0.66 2 1 C4.37123246 1.23029956 6.74741943 1.41119942 9.125 1.5625 C10.40632813 1.64628906 11.68765625 1.73007812 13.0078125 1.81640625 C14.48894531 1.90728516 14.48894531 1.90728516 16 2 C16 2.33 16 2.66 16 3 C21.61 3.33 27.22 3.66 33 4 C33 4.33 33 4.66 33 5 C19.47 5 5.94 5 -8 5 C-8 4.67 -8 4.34 -8 4 C-7.236875 3.896875 -6.47375 3.79375 -5.6875 3.6875 C-2.82940576 2.95635961 -1.84257115 2.23048087 0 0 Z " fill="#C0C5D4" transform="translate(301,336)"/>
<path d="M0 0 C24.255 0.495 24.255 0.495 49 1 C49 1.33 49 1.66 49 2 C32.83 2.33 16.66 2.66 0 3 C0 2.01 0 1.02 0 0 Z " fill="#3A5684" transform="translate(337,558)"/>
<path d="M0 0 C0.33 0 0.66 0 1 0 C1 9.24 1 18.48 1 28 C0.67 28 0.34 28 0 28 C0 26.35 0 24.7 0 23 C-2.97 23 -5.94 23 -9 23 C-9 22.01 -9 21.02 -9 20 C-6.03 20 -3.06 20 0 20 C0 13.4 0 6.8 0 0 Z " fill="#CFD6E2" transform="translate(276,519)"/>
<path d="M0 0 C0.99 0 1.98 0 3 0 C3 13.86 3 27.72 3 42 C2.34 42 1.68 42 1 42 C1 41.34 1 40.68 1 40 C-0.32 39.67 -1.64 39.34 -3 39 C-1.35 39 0.3 39 2 39 C2 27.12 2 15.24 2 3 C1.34 3 0.68 3 0 3 C0 2.01 0 1.02 0 0 Z " fill="#6D7D98" transform="translate(747,300)"/>
<path d="M0 0 C4.23429756 1.31061591 8.07407404 2.94356259 12 5 C11.01 5.495 11.01 5.495 10 6 C9.67 6.66 9.34 7.32 9 8 C9 7.34 9 6.68 9 6 C6.03 6 3.06 6 0 6 C0 4.02 0 2.04 0 0 Z " fill="#ECEEF3" transform="translate(752,351)"/>
<path d="M0 0 C0.99 0.33 1.98 0.66 3 1 C3 6.61 3 12.22 3 18 C2.01 17.67 1.02 17.34 0 17 C0 11.39 0 5.78 0 0 Z " fill="#B5BBCE" transform="translate(334,561)"/>
<path d="M0 0 C0 1.98 0 3.96 0 6 C-2.97 6 -5.94 6 -9 6 C-9 5.01 -9 4.02 -9 3 C-3.375 0 -3.375 0 0 0 Z " fill="#E9EBEF" transform="translate(277,350)"/>
<path d="M0 0 C5 6.36363636 5 6.36363636 5 11 C4.01 11 3.02 11 2 11 C1.01 7.7 0.02 4.4 -1 1 C-0.67 0.67 -0.34 0.34 0 0 Z " fill="#506A90" transform="translate(283,563)"/>
<path d="M0 0 C3.96 0 7.92 0 12 0 C12 0.99 12 1.98 12 3 C8.04 2.67 4.08 2.34 0 2 C0 1.34 0 0.68 0 0 Z " fill="#99A5B4" transform="translate(636,338)"/>
<path d="M0 0 C2.97 0.33 5.94 0.66 9 1 C8.01 1.495 8.01 1.495 7 2 C7 2.66 7 3.32 7 4 C5.35 4 3.7 4 2 4 C1.34 2.68 0.68 1.36 0 0 Z " fill="#7383A0" transform="translate(255,354)"/>
<path d="M0 0 C-0.33 0.99 -0.66 1.98 -1 3 C-3.875 3.125 -3.875 3.125 -7 3 C-7.66 2.34 -8.32 1.68 -9 1 C-3.375 -1.125 -3.375 -1.125 0 0 Z " fill="#64789D" transform="translate(773,355)"/>
</svg>
